<?xml version="1.0" encoding="UTF-8" standalone="no"?>
<!-- Created with Inkscape (http://www.inkscape.org/) -->

<svg
   xmlns:dc="http://purl.org/dc/elements/1.1/"
   xmlns:cc="http://creativecommons.org/ns#"
   xmlns:rdf="http://www.w3.org/1999/02/22-rdf-syntax-ns#"
   xmlns:svg="http://www.w3.org/2000/svg"
   xmlns="http://www.w3.org/2000/svg"
   xmlns:sodipodi="http://sodipodi.sourceforge.net/DTD/sodipodi-0.dtd"
   xmlns:inkscape="http://www.inkscape.org/namespaces/inkscape"
   width="45.279179mm"
   height="38.087704mm"
   viewBox="0 0 45.279179 38.087704"
   version="1.1"
   id="svg8"
   inkscape:version="0.92.3 (2405546, 2018-03-11)"
   sodipodi:docname="fdlogo-notext.svg">
  <defs
     id="defs2" />
  <sodipodi:namedview
     id="base"
     pagecolor="#ffffff"
     bordercolor="#666666"
     borderopacity="1.0"
     inkscape:pageopacity="0.0"
     inkscape:pageshadow="2"
     inkscape:zoom="0.98994949"
     inkscape:cx="61.677066"
     inkscape:cy="-119.80979"
     inkscape:document-units="mm"
     inkscape:current-layer="g930"
     showgrid="false"
     inkscape:window-width="1920"
     inkscape:window-height="1017"
     inkscape:window-x="1912"
     inkscape:window-y="-8"
     inkscape:window-maximized="1" />
  <metadata
     id="metadata5">
    <rdf:RDF>
      <cc:Work
         rdf:about="">
        <dc:format>image/svg+xml</dc:format>
        <dc:type
           rdf:resource="http://purl.org/dc/dcmitype/StillImage" />
        <dc:title></dc:title>
      </cc:Work>
    </rdf:RDF>
  </metadata>
  <g
     inkscape:label="Layer 1"
     inkscape:groupmode="layer"
     id="layer1"
     transform="translate(-4.164593,-0.67103926)">
    <g
       id="g930"
       transform="matrix(0.26458333,0,0,0.26458333,-1.4533181,-0.95166352)">
      <rect
         id="rect817"
         height="1.8"
         width="52.599998"
         y="148.10001"
         x="93.900002" />
      <rect
         id="rect819"
         height="1.8"
         width="53.299999"
         y="70.400002"
         x="93.699997" />
      <rect
         id="rect821"
         height="122.6"
         width="33"
         y="27.200001"
         x="58.700001" />
      <rect
         id="rect823"
         height="2.2"
         width="67.699997"
         y="27.299999"
         x="76.800003" />
      <path
         id="path825"
         d="m 163.3,47.2 c 0,10.7 -8.7,19.3 -19.3,19.3 -10.7,0 -19.3,-8.7 -19.3,-19.3 0,-10.7 8.7,-19.3 19.3,-19.3 10.7,0 19.3,8.7 19.3,19.3 z"
         class="st0"
         inkscape:connector-curvature="0"
         style="fill:#d31245;stroke:#000000;stroke-width:1.48720002" />
      <path
         id="path827"
         d="m 163.6,90 c 0,10.7 -8.7,19.3 -19.3,19.3 -10.7,0 -19.3,-8.7 -19.3,-19.3 0,-10.7 8.7,-19.3 19.3,-19.3 10.7,0 19.3,8.7 19.3,19.3 z"
         class="st0"
         inkscape:connector-curvature="0"
         style="fill:#d31245;stroke:#000000;stroke-width:1.48720002" />
      <path
         id="path829"
         d="m 163.6,129.9 c 0,10.7 -8.7,19.3 -19.3,19.3 -10.7,0 -19.3,-8.7 -19.3,-19.3 0,-10.7 8.7,-19.3 19.3,-19.3 10.7,0 19.3,8.6 19.3,19.3 z"
         class="st0"
         inkscape:connector-curvature="0"
         style="fill:#d31245;stroke:#000000;stroke-width:1.48720002" />
      <rect
         id="rect831"
         height="79.199997"
         width="25.5"
         y="70.5"
         x="93.699997" />
      <rect
         id="rect833"
         height="2.3"
         width="73.599998"
         y="65.699997"
         x="45.900002" />
      <path
         id="path835"
         d="M 45.1,148.2 C 31.4,133.3 23.1,113.5 23.1,91.7 23.1,45.4 60.6,8 106.8,8 c 46.2,0 83.7,37.4 83.7,83.7 0,21.2 -7.9,40.6 -21,55.4"
         class="st1"
         inkscape:connector-curvature="0"
         style="fill:none;stroke:#000000;stroke-width:3.73390007;stroke-linecap:round;stroke-linejoin:round" />
      <g
         id="g885">
	<path
   id="path837"
   d="m 11.6,165.7 v -3 H 13 v -1.5 c 0,-1.4 1,-2.7 2.8,-2.7 h 6.3 v 2.9 h -1.3 c -1,0 -1.4,0.3 -1.4,1.3 H 22 v 3 h -2.6 v 10.5 H 13 v -10.5 z"
   inkscape:connector-curvature="0" />

	<path
   id="path839"
   d="m 23.2,161.4 v -3 h 6.4 v 3 z m 0,1.3 h 6.4 v 13.5 h -6.4 z"
   inkscape:connector-curvature="0" />

	<path
   id="path841"
   d="m 46.9,171.6 c 0.1,1.2 -1.1,3.2 -2.7,4 -1.7,0.8 -3.6,0.9 -5,0.9 -6.2,0 -7.6,-2.8 -7.6,-7.1 0,-4.3 1.8,-7.1 7.9,-7.1 6.4,0 7.4,2.7 7.4,7.8 h -9.2 c 0,2.8 0.3,3.1 1.7,3.1 1.2,0 1.5,-0.5 1.7,-1.6 z m -5.8,-3.8 c 0,-1.2 -0.3,-2.3 -1.7,-2.3 -1.4,0 -1.7,1.1 -1.7,2.3 z"
   inkscape:connector-curvature="0" />

	<path
   id="path843"
   d="m 48.9,158.5 h 6.4 v 17.7 h -6.4 z"
   inkscape:connector-curvature="0" />

	<path
   id="path845"
   d="m 66.4,174 v 0 c -0.9,1.8 -2.4,2.6 -4.3,2.6 -2.9,0 -4.5,-1.6 -4.5,-6.1 v -2.1 c 0,-4.6 1.7,-6.1 4.6,-6.1 1.8,0 3.3,0.9 4,2.4 v 0 -6.2 h 6.5 v 17.7 H 66.3 V 174 Z m -2.6,-3.5 c 0,1 0.3,1.6 1.2,1.6 0.8,0 1.2,-0.6 1.2,-1.6 v -2.3 c 0,-1.1 -0.5,-1.5 -1.2,-1.5 -0.8,0 -1.2,0.5 -1.2,1.5 z"
   inkscape:connector-curvature="0" />

	<path
   id="path847"
   d="m 75.3,167 c 0.2,-3.7 2.7,-4.7 6.7,-4.7 4.7,0 7.4,1.4 7.4,4.6 v 6.9 c 0,0.9 0.2,1.8 1.1,2.3 v 0 H 84 c -0.2,-0.6 -0.3,-1.9 -0.3,-2.5 v 0 c -0.6,2.1 -2.8,2.9 -4.8,2.9 -3.1,0 -4.2,-1.9 -4.2,-3.9 0,-6.9 9,-3 9,-5.9 0,-0.8 -0.6,-1.3 -1.4,-1.3 -1,0 -1.7,0.3 -1.7,1.4 h -5.3 z m 8.3,2.4 v 0 c -0.8,1.2 -3.2,0.7 -3.2,2.6 0,0.7 0.7,1.2 1.4,1.2 1.2,0 1.8,-1 1.8,-3 z"
   inkscape:connector-curvature="0" />

	<path
   id="path849"
   d="m 91.7,158.5 h 6.4 v 17.7 h -6.4 z"
   inkscape:connector-curvature="0" />

	<path
   id="path851"
   d="m 115.4,171.6 c 0.1,1.2 -1.1,3.2 -2.7,4 -1.7,0.8 -3.6,0.9 -5,0.9 -6.2,0 -7.6,-2.8 -7.6,-7.1 0,-4.3 1.8,-7.1 7.9,-7.1 6.4,0 7.4,2.7 7.4,7.8 h -9.2 c 0,2.8 0.3,3.1 1.7,3.1 1.2,0 1.5,-0.5 1.7,-1.6 z m -5.8,-3.8 c 0,-1.2 -0.3,-2.3 -1.7,-2.3 -1.4,0 -1.7,1.1 -1.7,2.3 z"
   inkscape:connector-curvature="0" />

	<path
   id="path853"
   d="m 125.4,165.7 v -3 h 1.4 v -1.5 c 0,-1.4 1,-2.7 2.8,-2.7 h 6.3 v 2.9 h -1.3 c -1,0 -1.4,0.3 -1.4,1.3 h 2.6 v 3 h -2.6 v 10.5 h -6.5 v -10.5 z"
   inkscape:connector-curvature="0" />

	<path
   id="path855"
   d="m 137.1,167 c 0.2,-3.7 2.7,-4.7 6.7,-4.7 4.7,0 7.4,1.4 7.4,4.6 v 6.9 c 0,0.9 0.2,1.8 1.1,2.3 v 0 h -6.5 c -0.2,-0.6 -0.3,-1.9 -0.3,-2.5 v 0 c -0.6,2.1 -2.8,2.9 -4.8,2.9 -3.1,0 -4.2,-1.9 -4.2,-3.9 0,-6.9 9,-3 9,-5.9 0,-0.8 -0.6,-1.3 -1.4,-1.3 -1,0 -1.7,0.3 -1.7,1.4 h -5.3 z m 8.3,2.4 v 0 c -0.8,1.2 -3.2,0.7 -3.2,2.6 0,0.7 0.7,1.2 1.4,1.2 1.2,0 1.8,-1 1.8,-3 z"
   inkscape:connector-curvature="0" />

	<path
   id="path857"
   d="m 153.6,162.7 h 6.2 v 2.9 0 c 0.9,-2.1 2.9,-3.3 5.2,-3.3 v 6.5 c -0.6,-0.3 -1.3,-0.4 -2.1,-0.4 -1.8,0 -3,1.3 -3,2.7 v 5.1 h -6.4 v -13.5 z"
   inkscape:connector-curvature="0" />

	<path
   id="path859"
   d="m 166.3,162.7 h 5.9 v 2.4 0 c 1,-1.7 2.3,-2.8 4.3,-2.8 1.9,0 2.8,1.1 3.8,2.5 0.9,-1.7 2.4,-2.5 4.2,-2.5 2.6,0 4.4,2.2 4.4,4.7 v 9.2 h -6.1 v -8.3 c 0,-0.6 -0.4,-1.1 -1.1,-1.1 -0.6,0 -1,0.4 -1,0.9 v 8.5 h -6.1 v -8.3 c 0,-0.6 -0.4,-1.1 -1.1,-1.1 -0.6,0 -1,0.4 -1,0.9 v 8.5 h -6.1 v -13.5 z"
   inkscape:connector-curvature="0" />

	<path
   id="path861"
   d="m 199.3,166.6 c 0,-0.4 -0.1,-0.7 -0.3,-1 -0.2,-0.2 -0.5,-0.4 -0.9,-0.4 -0.8,0 -1.2,0.3 -1.2,1.1 0,2.5 8.2,-0.3 8.2,5.3 0,3.3 -1.9,4.9 -7.3,4.9 -2.9,0 -7.3,-0.6 -7.3,-4.3 h 5.8 c 0,0.4 0.1,0.7 0.3,1 0.2,0.2 0.5,0.4 1,0.4 0.9,0 1.3,-0.5 1.3,-1 0,-2.3 -8.1,-0.4 -8.1,-5.8 0,-3.1 1.8,-4.5 6.9,-4.5 4.3,0 7.1,0.7 7.1,4.3 z"
   inkscape:connector-curvature="0" />

	<path
   id="path863"
   d="m 34,196.5 c 0,0.9 0.4,1.2 1.2,1.2 0.8,0 1.2,-0.3 1.2,-1.2 v -1 h 6 c -0.1,2.5 -1.1,5.9 -7.2,5.9 -6.1,0 -7.7,-2.2 -7.7,-7.2 0,-5 1.6,-7.2 7.7,-7.2 6,0 7,2.7 7.2,5.7 h -6 V 192 c 0,-0.9 -0.4,-1.2 -1.2,-1.2 -0.8,0 -1.2,0.3 -1.2,1.2 z"
   inkscape:connector-curvature="0" />

	<path
   id="path865"
   d="m 43.7,194.3 c 0,-6 2.8,-7.1 7.6,-7.1 4.8,0 7.6,1.2 7.6,7.1 0,6 -2.8,7.1 -7.6,7.1 -4.8,0 -7.6,-1.2 -7.6,-7.1 z m 6.4,2.2 c 0,0.8 0.5,1.1 1.2,1.1 0.8,0 1.2,-0.3 1.2,-1.1 V 192 c 0,-0.8 -0.4,-1.1 -1.2,-1.1 -0.7,0 -1.2,0.3 -1.2,1.1 z"
   inkscape:connector-curvature="0" />

	<path
   id="path867"
   d="m 61.1,187.5 h 6.2 v 2.9 0 c 0.9,-2.1 2.9,-3.3 5.2,-3.3 v 6.5 c -0.6,-0.3 -1.3,-0.4 -2.1,-0.4 -1.8,0 -3,1.3 -3,2.7 V 201 H 61 v -13.5 z"
   inkscape:connector-curvature="0" />

	<path
   id="path869"
   d="m 80.3,189.7 v 0 c 0.9,-1.8 2.4,-2.6 4.3,-2.6 2.9,0 4.5,1.6 4.5,6.1 v 2.1 c 0,4.6 -1.7,6.1 -4.6,6.1 -1.8,0 -3.3,-0.9 -4,-2.4 v 0 7.1 H 74 v -18.6 h 6.4 v 2.2 z m 2.5,3.5 c 0,-1 -0.3,-1.6 -1.2,-1.6 -0.8,0 -1.2,0.6 -1.2,1.6 v 2.3 c 0,1.1 0.5,1.5 1.2,1.5 0.8,0 1.2,-0.5 1.2,-1.5 z"
   inkscape:connector-curvature="0" />

	<path
   id="path871"
   d="m 91,194.3 c 0,-6 2.8,-7.1 7.6,-7.1 4.8,0 7.6,1.2 7.6,7.1 0,6 -2.8,7.1 -7.6,7.1 -4.8,0 -7.6,-1.2 -7.6,-7.1 z m 6.4,2.2 c 0,0.8 0.5,1.1 1.2,1.1 0.8,0 1.2,-0.3 1.2,-1.1 V 192 c 0,-0.8 -0.4,-1.1 -1.2,-1.1 -0.7,0 -1.2,0.3 -1.2,1.1 z"
   inkscape:connector-curvature="0" />

	<path
   id="path873"
   d="m 108.4,187.5 h 6.2 v 2.9 0 c 0.9,-2.1 2.9,-3.3 5.2,-3.3 v 6.5 c -0.6,-0.3 -1.3,-0.4 -2.1,-0.4 -1.8,0 -3,1.3 -3,2.7 v 5.1 h -6.4 v -13.5 z"
   inkscape:connector-curvature="0" />

	<path
   id="path875"
   d="m 121.3,191.8 c 0.2,-3.7 2.7,-4.7 6.7,-4.7 4.7,0 7.4,1.4 7.4,4.6 v 6.9 c 0,0.9 0.2,1.8 1.1,2.3 v 0 H 130 c -0.2,-0.6 -0.3,-1.9 -0.3,-2.5 v 0 c -0.6,2.1 -2.8,2.9 -4.8,2.9 -3.1,0 -4.2,-1.9 -4.2,-3.9 0,-6.9 9,-3 9,-5.9 0,-0.8 -0.6,-1.3 -1.4,-1.3 -1,0 -1.7,0.3 -1.7,1.4 h -5.3 z m 8.4,2.4 v 0 c -0.8,1.2 -3.2,0.7 -3.2,2.6 0,0.7 0.7,1.2 1.4,1.2 1.2,0 1.8,-1 1.8,-3 z"
   inkscape:connector-curvature="0" />

	<path
   id="path877"
   d="m 138.2,187.5 v -3 h 6.5 v 3 h 2.6 v 3 h -2.6 v 5.7 c 0,0.9 0.6,1.7 1.4,1.7 h 1.3 v 3.2 H 141 c -1.8,0 -2.8,-1.3 -2.8,-2.7 v -7.8 h -1.3 v -3 h 1.3 z"
   inkscape:connector-curvature="0" />

	<path
   id="path879"
   d="m 148.3,186.3 v -3 h 6.4 v 3 z m 0,1.2 h 6.4 V 201 h -6.4 z"
   inkscape:connector-curvature="0" />

	<path
   id="path881"
   d="m 156.7,194.3 c 0,-6 2.8,-7.1 7.6,-7.1 4.8,0 7.6,1.2 7.6,7.1 0,6 -2.8,7.1 -7.6,7.1 -4.8,0 -7.6,-1.2 -7.6,-7.1 z m 6.5,2.2 c 0,0.8 0.5,1.1 1.2,1.1 0.8,0 1.2,-0.3 1.2,-1.1 V 192 c 0,-0.8 -0.4,-1.1 -1.2,-1.1 -0.7,0 -1.2,0.3 -1.2,1.1 z"
   inkscape:connector-curvature="0" />

	<path
   id="path883"
   d="m 174,187.5 h 6.3 v 2.3 0 c 1,-2 2.3,-2.7 4.5,-2.7 2.9,0 4.4,1.8 4.4,4.6 v 9.3 h -6.5 v -8.1 c 0,-1 -0.3,-1.4 -1.1,-1.4 -0.8,0 -1.2,0.3 -1.2,1.6 V 201 H 174 Z"
   inkscape:connector-curvature="0" />

</g>
    </g>
  </g>
  <style
     id="style815"
     type="text/css">
	.st0{fill:#D31245;stroke:#000000;stroke-width:1.4872;}
	.st1{fill:none;stroke:#000000;stroke-width:3.7339;stroke-linecap:round;stroke-linejoin:round;}
</style>
</svg>
